<svg version="1.1" id="Layer_1" xmlns="http://www.w3.org/2000/svg" xmlns:xlink="http://www.w3.org/1999/xlink" x="0px" y="0px"
	 width="100%" viewBox="0 0 338 338" enable-background="new 0 0 338 338" xml:space="preserve">
<path fill="#FFFFFF" opacity="1.000000" stroke="none"
	d="
M124.000000,339.000000
	C83.026314,339.000000 42.052624,339.000000 1.039469,339.000000
	C1.039469,226.431961 1.039469,113.863907 1.039469,1.000000
	C74.353966,1.000000 147.708328,1.000000 221.397186,1.326913
	C217.568100,3.388412 217.188461,7.204852 217.156509,10.833595
	C217.118912,15.104695 217.714264,19.381369 218.066345,24.071215
	C185.993088,9.418800 154.064316,10.174372 122.589828,24.145029
	C91.122475,38.112526 69.235916,61.276779 59.160992,95.140869
	C56.886215,92.594673 55.170551,90.332130 53.111107,88.444702
	C49.500538,85.135704 45.807739,80.316536 40.354168,82.860504
	C34.949345,85.381737 35.500046,91.419960 36.247723,96.236412
	C39.625969,117.998665 47.396603,137.599701 65.313652,151.837479
	C66.185349,152.530167 66.875053,153.524719 67.461609,154.492569
	C77.902206,171.720398 92.955605,183.234161 111.727341,190.031723
	C159.485413,207.325714 219.365814,186.929367 246.788742,144.094345
	C259.371948,124.439178 265.105133,103.236465 260.914581,79.923134
	C259.979980,74.723770 257.191101,69.630959 257.272736,64.521301
	C257.462219,52.662510 254.439529,41.731239 249.532349,31.288794
	C243.879059,19.258610 237.759155,7.376985 225.000000,1.000000
	C262.972198,1.000000 300.944366,1.000000 338.958282,1.000000
	C338.958282,113.556366 338.958282,226.112747 338.958282,339.000000
	C290.646271,339.000000 242.291794,339.000000 193.468445,338.658966
	C192.994095,337.863190 192.988602,337.408447 193.020950,336.596130
	C198.815247,324.144012 204.571732,312.049530 210.513000,299.566742
	C227.458298,312.225220 243.904190,324.510590 260.480499,336.893433
	C260.480499,322.905762 262.574524,309.102020 260.112488,296.165375
	C250.254059,244.364532 205.238525,210.582748 152.325592,213.874344
	C93.590500,217.528122 54.902401,269.829895 58.070770,313.896667
	C58.610741,321.406738 58.147083,328.988953 58.147083,337.542633
	C75.533173,324.543793 91.998505,312.233368 109.065926,299.472778
	C114.184883,313.021545 119.092445,326.010773 124.000000,339.000000
z"/>
<path fill="#51A775" opacity="1.000000" stroke="none"
	d="
M224.625000,1.000000
	C237.759155,7.376985 243.879059,19.258610 249.532349,31.288794
	C254.439529,41.731239 257.462219,52.662510 257.272736,64.521301
	C257.191101,69.630959 259.979980,74.723770 260.914581,79.923134
	C265.105133,103.236465 259.371948,124.439178 246.788742,144.094345
	C219.365814,186.929367 159.485413,207.325714 111.727341,190.031723
	C92.955605,183.234161 77.902206,171.720398 67.461609,154.492569
	C66.875053,153.524719 66.185349,152.530167 65.313652,151.837479
	C47.396603,137.599701 39.625969,117.998665 36.247723,96.236412
	C35.500046,91.419960 34.949345,85.381737 40.354168,82.860504
	C45.807739,80.316536 49.500538,85.135704 53.111107,88.444702
	C55.170551,90.332130 56.886215,92.594673 59.160992,95.140869
	C69.235916,61.276779 91.122475,38.112526 122.589828,24.145029
	C154.064316,10.174372 185.993088,9.418800 218.066345,24.071215
	C217.714264,19.381369 217.118912,15.104695 217.156509,10.833595
	C217.188461,7.204852 217.568100,3.388412 221.865845,1.326913
	C222.750000,1.000000 223.500000,1.000000 224.625000,1.000000
M108.389923,103.070290
	C103.186928,120.153999 107.195221,132.110672 121.407654,140.345230
	C125.661949,142.810135 130.402191,144.863312 135.181793,145.919327
	C154.116653,150.102844 171.414291,145.260025 187.497299,135.201859
	C198.872879,128.087662 207.203171,118.427902 211.236053,105.429947
	C216.286072,89.153793 211.198929,76.638786 196.244537,68.494812
	C182.413330,60.962502 167.866928,60.598957 153.179260,65.040298
	C133.132645,71.102097 116.524666,81.559074 108.389923,103.070290
z"/>
<path fill="#51A775" opacity="1.000000" stroke="none"
	d="
M124.250000,339.000000
	C119.092445,326.010773 114.184883,313.021545 109.065926,299.472778
	C91.998505,312.233368 75.533173,324.543793 58.147083,337.542633
	C58.147083,328.988953 58.610741,321.406738 58.070770,313.896667
	C54.902401,269.829895 93.590500,217.528122 152.325592,213.874344
	C205.238525,210.582748 250.254059,244.364532 260.112488,296.165375
	C262.574524,309.102020 260.480499,322.905762 260.480499,336.893433
	C243.904190,324.510590 227.458298,312.225220 210.513000,299.566742
	C204.571732,312.049530 198.815247,324.144012 192.744141,336.790497
	C191.544571,337.048584 190.355103,337.021301 189.825546,336.416382
	C186.983078,333.169250 184.294891,329.786469 181.571930,326.435486
	C174.373764,317.577026 167.185120,308.710815 159.714233,299.504608
	C153.159409,306.835754 146.932144,313.714203 140.804398,320.680145
	C135.477829,326.735352 130.263794,332.889557 125.000000,339.000000
	C125.000000,339.000000 124.500000,339.000000 124.250000,339.000000
z"/>
<path fill="#FDFEFE" opacity="1.000000" stroke="none"
	d="
M125.468658,339.000000
	C130.263794,332.889557 135.477829,326.735352 140.804398,320.680145
	C146.932144,313.714203 153.159409,306.835754 159.714233,299.504608
	C167.185120,308.710815 174.373764,317.577026 181.571930,326.435486
	C184.294891,329.786469 186.983078,333.169250 189.825546,336.416382
	C190.355103,337.021301 191.544571,337.048584 192.706299,337.148071
	C192.988602,337.408447 192.994095,337.863190 192.999786,338.658966
	C170.645767,339.000000 148.291550,339.000000 125.468658,339.000000
z"/>
<path fill="#FEFFFE" opacity="1.000000" stroke="none"
	d="
M108.551620,102.708130
	C116.524666,81.559074 133.132645,71.102097 153.179260,65.040298
	C167.866928,60.598957 182.413330,60.962502 196.244537,68.494812
	C211.198929,76.638786 216.286072,89.153793 211.236053,105.429947
	C207.203171,118.427902 198.872879,128.087662 187.497299,135.201859
	C171.414291,145.260025 154.116653,150.102844 135.181793,145.919327
	C130.402191,144.863312 125.661949,142.810135 121.407654,140.345230
	C107.195221,132.110672 103.186928,120.153999 108.551620,102.708130
z"/>
</svg>