<svg version="1.1" id="Layer_1" xmlns="http://www.w3.org/2000/svg" xmlns:xlink="http://www.w3.org/1999/xlink" x="0px" y="0px"
	 width="100%" viewBox="0 0 328 328" enable-background="new 0 0 328 328" xml:space="preserve">
<path fill="#FEFFFF" opacity="1.000000" stroke="none"
	d="
M124.000000,329.000000
	C83.014427,329.000000 42.028854,329.000000 1.021642,329.000000
	C1.021642,219.719574 1.021642,110.439140 1.021642,1.079355
	C110.241905,1.079355 219.483887,1.079355 328.862915,1.079355
	C328.862915,110.333221 328.862915,219.666580 328.862915,329.000000
	C283.905609,329.000000 238.921463,329.000000 193.468353,328.658905
	C192.993927,327.862976 192.988449,327.408173 193.020782,326.595764
	C198.815033,314.143768 204.571472,302.049316 210.512878,289.566315
	C227.457962,302.224579 243.903824,314.509888 260.480042,326.892609
	C260.480042,312.905365 262.574036,299.101776 260.112030,286.165253
	C250.253586,234.364075 205.240524,200.583633 152.325500,203.874878
	C93.588547,207.528229 54.902508,259.832092 58.071102,303.896698
	C58.611130,311.406677 58.147419,318.988861 58.147419,327.541779
	C75.533615,314.542908 91.998772,302.232666 109.066246,289.472076
	C114.185265,303.021515 119.092628,316.010773 124.000000,329.000000
M61.223770,78.819397
	C48.515690,120.195374 65.259743,158.643234 104.233902,176.931686
	C125.469307,186.896301 147.873093,188.761871 170.578339,183.909500
	C209.339951,175.625656 238.869354,154.764481 255.303162,117.879227
	C272.111206,80.153999 259.026581,38.752785 223.693085,17.578285
	C197.179596,1.689395 168.526840,-0.300976 139.380157,8.158204
	C102.434776,18.880787 75.326035,41.246178 61.223770,78.819397
z"/>
<path fill="#51A775" opacity="1.000000" stroke="none"
	d="
M124.250000,329.000000
	C119.092628,316.010773 114.185265,303.021515 109.066246,289.472076
	C91.998772,302.232666 75.533615,314.542908 58.147419,327.541779
	C58.147419,318.988861 58.611130,311.406677 58.071102,303.896698
	C54.902508,259.832092 93.588547,207.528229 152.325500,203.874878
	C205.240524,200.583633 250.253586,234.364075 260.112030,286.165253
	C262.574036,299.101776 260.480042,312.905365 260.480042,326.892609
	C243.903824,314.509888 227.457962,302.224579 210.512878,289.566315
	C204.571472,302.049316 198.815033,314.143768 192.744049,326.790314
	C191.544601,327.048615 190.355148,327.021393 189.825623,326.416473
	C186.983154,323.169342 184.294952,319.786560 181.572006,316.435577
	C174.373825,307.577087 167.185165,298.710876 159.714279,289.504608
	C153.159454,296.835754 146.932205,303.714172 140.804459,310.680145
	C135.477875,316.735352 130.263794,322.889557 125.000000,329.000000
	C125.000000,329.000000 124.500000,329.000000 124.250000,329.000000
z"/>
<path fill="#FDFEFE" opacity="1.000000" stroke="none"
	d="
M125.468658,329.000000
	C130.263794,322.889557 135.477875,316.735352 140.804459,310.680145
	C146.932205,303.714172 153.159454,296.835754 159.714279,289.504608
	C167.185165,298.710876 174.373825,307.577087 181.572006,316.435577
	C184.294952,319.786560 186.983154,323.169342 189.825623,326.416473
	C190.355148,327.021393 191.544601,327.048615 192.706238,327.147888
	C192.988449,327.408173 192.993927,327.862976 192.999695,328.658905
	C170.645767,329.000000 148.291550,329.000000 125.468658,329.000000
z"/>
<path fill="#51A875" opacity="1.000000" stroke="none"
	d="
M61.383293,78.455681
	C75.326035,41.246178 102.434776,18.880787 139.380157,8.158204
	C168.526840,-0.300976 197.179596,1.689395 223.693085,17.578285
	C259.026581,38.752785 272.111206,80.153999 255.303162,117.879227
	C238.869354,154.764481 209.339951,175.625656 170.578339,183.909500
	C147.873093,188.761871 125.469307,186.896301 104.233902,176.931686
	C65.259743,158.643234 48.515690,120.195374 61.383293,78.455681
M191.306213,56.047806
	C170.131775,48.134636 150.688019,53.268917 132.251160,64.308327
	C120.297653,71.465698 111.734184,81.574959 107.736763,95.231888
	C103.377762,110.124084 107.598618,122.097893 120.773682,129.975662
	C125.134590,132.583176 130.023575,134.963699 134.957779,135.847504
	C162.574982,140.794174 185.378891,131.783966 203.424225,110.636398
	C208.922913,104.192436 212.037292,96.355408 212.862457,87.896088
	C214.293762,73.222908 207.752029,63.554409 191.306213,56.047806
z"/>
<path fill="#FEFEFE" opacity="1.000000" stroke="none"
	d="
M191.658936,56.201401
	C207.752029,63.554409 214.293762,73.222908 212.862457,87.896088
	C212.037292,96.355408 208.922913,104.192436 203.424225,110.636398
	C185.378891,131.783966 162.574982,140.794174 134.957779,135.847504
	C130.023575,134.963699 125.134590,132.583176 120.773682,129.975662
	C107.598618,122.097893 103.377762,110.124084 107.736763,95.231888
	C111.734184,81.574959 120.297653,71.465698 132.251160,64.308327
	C150.688019,53.268917 170.131775,48.134636 191.658936,56.201401
z"/>
</svg>