<?xml version="1.0" encoding="UTF-8"?>
<svg width="32px" height="32px" viewBox="0 0 32 32" version="1.1" xmlns="http://www.w3.org/2000/svg">
    <g stroke="none" stroke-width="1" fill="none" fill-rule="evenodd">
        <path d="M28,6 L4,6 C2.8954305,6 2,6.8954305 2,8 L2,24 C2,25.1045695 2.8954305,26 4,26 L28,26 C29.1045695,26 30,25.1045695 30,24 L30,8 C30,6.8954305 29.1045695,6 28,6 Z" stroke="#0094FF" stroke-width="2" fill="#333333"></path>
        <rect fill="#0094FF" x="2" y="10" width="28" height="2"></rect>
        <path d="M21,18 L11,18 C10.4477153,18 10,17.5522847 10,17 C10,16.4477153 10.4477153,16 11,16 L21,16 C21.5522847,16 22,16.4477153 22,17 C22,17.5522847 21.5522847,18 21,18 Z" fill="#0094FF"></path>
        <path d="M21,22 L11,22 C10.4477153,22 10,21.5522847 10,21 C10,20.4477153 10.4477153,20 11,20 L21,20 C21.5522847,20 22,20.4477153 22,21 C22,21.5522847 21.5522847,22 21,22 Z" fill="#0094FF"></path>
    </g>
</svg>
